<?xml version="1.0" standalone="no"?>
<!DOCTYPE svg PUBLIC "-//W3C//DTD SVG 20010904//EN"
 "http://www.w3.org/TR/2001/REC-SVG-20010904/DTD/svg10.dtd">
<svg version="1.0" xmlns="http://www.w3.org/2000/svg"
 width="776.000000pt" height="776.000000pt" viewBox="0 0 776.000000 776.000000"
 preserveAspectRatio="xMidYMid meet">
<metadata>
Created by potrace 1.14, written by Peter Selinger 2001-2017
</metadata>
<g transform="translate(0.000000,776.000000) scale(0.100000,-0.100000)"
fill="#000000" stroke="none">
<path d="M2000 7741 c-57 -18 -123 -48 -175 -79 -16 -10 -97 -56 -180 -102
-82 -46 -158 -90 -167 -98 -10 -8 -18 -12 -18 -8 0 4 -12 -1 -28 -11 -43 -29
-64 -41 -112 -65 -89 -46 -201 -181 -234 -282 -18 -53 -21 -118 -21 -441 l0
-350 25 -35 c75 -107 169 -123 302 -53 40 21 75 41 78 44 3 3 48 29 100 58 52
28 104 57 115 64 71 44 96 57 110 57 8 0 15 3 15 8 0 4 26 20 58 37 31 16 59
32 62 35 3 3 23 14 45 25 22 11 42 23 43 28 2 4 7 7 12 7 4 0 88 45 185 100
97 55 181 100 185 100 5 0 10 3 12 8 2 4 21 16 43 28 84 44 439 246 464 265
40 29 62 73 68 134 9 89 -29 151 -127 207 -428 244 -535 302 -594 320 -57 18
-206 18 -266 -1z"/>
<path d="M5550 7749 c-19 -5 -44 -11 -54 -14 -28 -7 -197 -94 -206 -107 -3 -4
-21 -14 -40 -23 -19 -9 -44 -22 -55 -28 -11 -7 -88 -50 -170 -96 -149 -83
-205 -123 -205 -147 0 -7 -5 -14 -10 -16 -6 -2 -14 -29 -17 -60 -7 -69 15
-131 59 -168 33 -27 132 -87 161 -97 9 -3 17 -10 17 -16 0 -6 3 -7 6 -4 4 4
19 -2 33 -12 14 -9 53 -32 86 -51 33 -18 80 -44 105 -58 25 -14 54 -30 65 -36
11 -6 28 -18 39 -26 10 -8 19 -13 20 -11 0 3 33 -14 71 -36 76 -44 124 -72
194 -110 25 -13 62 -34 81 -45 19 -11 57 -32 83 -47 26 -14 56 -30 65 -36 9
-5 69 -39 132 -74 63 -35 127 -73 143 -83 15 -11 27 -16 27 -12 0 4 8 1 18 -7
20 -17 28 -21 182 -105 19 -10 37 -22 40 -25 20 -22 95 -32 150 -19 49 12 82
37 120 90 l25 35 0 370 -1 370 -32 80 c-21 54 -49 99 -83 137 -46 53 -128 118
-149 118 -5 0 -15 6 -22 13 -14 13 -34 24 -133 78 -33 17 -141 78 -240 133
-194 110 -238 131 -300 144 -55 12 -163 12 -205 1z"/>
<path d="M3909 7226 c-2 -2 -48 -6 -103 -10 -54 -3 -102 -8 -105 -11 -4 -2
-21 -6 -37 -9 -66 -12 -90 -19 -101 -28 -7 -6 -13 -8 -13 -4 0 3 -26 -6 -57
-20 -32 -13 -70 -30 -85 -37 -16 -6 -28 -16 -28 -20 0 -5 -4 -6 -9 -2 -5 3
-12 1 -16 -5 -3 -6 -23 -18 -43 -29 -20 -10 -93 -51 -162 -91 -69 -41 -141
-82 -160 -93 -19 -10 -48 -27 -65 -38 -16 -10 -36 -22 -44 -26 -8 -3 -63 -35
-123 -70 -60 -35 -113 -63 -118 -63 -4 0 -10 -4 -12 -8 -1 -5 -28 -22 -58 -39
-89 -49 -134 -75 -145 -83 -5 -4 -30 -19 -55 -32 -25 -14 -63 -35 -85 -48 -22
-13 -60 -34 -85 -48 -25 -14 -56 -32 -70 -41 -14 -10 -46 -28 -73 -42 -26 -13
-47 -27 -47 -31 0 -5 -4 -8 -9 -8 -8 0 -90 -45 -320 -178 -68 -40 -127 -72
-132 -72 -5 0 -9 -3 -9 -7 0 -5 -10 -13 -23 -18 -35 -17 -111 -59 -117 -66 -3
-3 -12 -9 -20 -13 -8 -4 -24 -12 -35 -19 -11 -7 -54 -31 -95 -54 -111 -62
-181 -111 -258 -178 -149 -130 -286 -359 -328 -546 -2 -11 -6 -29 -9 -41 -3
-13 -8 -43 -12 -68 -10 -60 -9 -2761 1 -2825 4 -27 12 -68 18 -90 6 -22 12
-44 12 -50 2 -20 61 -162 89 -215 70 -129 165 -242 281 -335 48 -39 287 -184
304 -185 6 0 12 -4 12 -10 0 -5 4 -10 10 -10 5 0 33 -14 62 -31 49 -30 78 -46
139 -81 13 -7 26 -15 29 -18 3 -3 23 -14 45 -25 22 -11 46 -26 53 -32 7 -7 20
-13 28 -13 8 0 14 -4 14 -9 0 -5 11 -12 25 -15 14 -4 25 -11 25 -16 0 -6 5
-10 10 -10 6 0 54 -25 108 -57 53 -31 129 -74 167 -96 39 -22 103 -59 142 -83
40 -24 74 -44 77 -44 2 0 45 -25 95 -55 51 -30 94 -55 96 -55 3 0 29 -16 59
-35 30 -19 57 -35 59 -35 3 0 92 -51 198 -113 107 -61 215 -123 242 -137 26
-14 47 -28 47 -32 0 -5 4 -8 9 -8 5 0 48 -23 96 -50 48 -28 91 -50 96 -50 5 0
9 -3 9 -7 0 -16 192 -106 285 -135 185 -57 419 -57 615 -1 53 15 190 72 200
83 3 3 12 6 20 8 8 2 22 9 30 16 8 7 38 25 65 41 132 73 356 204 373 217 6 6
12 7 12 3 0 -4 15 3 33 17 17 13 43 29 57 36 14 7 48 26 75 42 28 17 61 36 75
43 14 6 27 14 30 17 6 6 25 17 183 108 65 37 126 72 135 77 9 6 55 32 102 59
128 73 136 78 270 156 69 40 141 82 160 93 146 82 198 113 221 128 14 10 29
16 33 12 3 -3 6 -2 6 4 0 6 24 23 53 37 28 15 70 38 92 51 22 14 77 46 123 72
113 65 113 65 152 93 102 72 206 179 272 280 33 50 94 158 96 170 1 3 7 21 16
40 8 19 21 60 30 90 43 155 43 139 43 1558 0 744 -4 1376 -9 1405 -5 28 -10
65 -13 80 -6 45 -56 188 -83 242 -15 28 -26 52 -27 55 -3 26 -115 172 -184
241 -112 111 -198 170 -439 301 -31 17 -76 44 -99 60 -24 16 -43 26 -43 22 0
-4 -8 -1 -17 7 -10 8 -28 19 -39 26 -12 7 -93 53 -180 104 -88 50 -172 99
-189 109 -16 10 -70 41 -118 69 -49 28 -92 51 -97 51 -5 0 -10 4 -12 9 -1 5
-21 17 -43 28 -22 11 -80 44 -130 73 -137 81 -393 229 -455 263 -30 17 -72 41
-92 54 -21 13 -41 23 -45 23 -3 0 -14 6 -22 14 -9 8 -38 26 -66 41 -27 14 -63
35 -80 46 -16 10 -37 22 -45 26 -16 7 -154 86 -180 103 -37 23 -160 80 -174
80 -8 0 -17 4 -20 9 -5 7 -36 16 -71 21 -3 1 -26 7 -52 15 -27 8 -84 17 -128
21 -44 3 -83 8 -86 10 -3 2 -8 2 -10 0z"/>
</g>
</svg>
