<?xml version="1.0" encoding="utf-8"?>
<!-- Generator: Adobe Illustrator 19.0.0, SVG Export Plug-In . SVG Version: 6.00 Build 0)  -->
<svg version="1.1" id="layer" xmlns="http://www.w3.org/2000/svg" xmlns:xlink="http://www.w3.org/1999/xlink" x="0px" y="0px"
	 viewBox="-153 -46 652 652" style="enable-background:new -153 -46 652 652;" xml:space="preserve">
<style type="text/css">
	.st0{fill:#D30C4F;}
</style>
<g>
	<path id="Shape" class="st0" d="M468,332.4v-13.3h-0.2c-6.1,0-9.6-3.4-14.5-9.6c-4.1-5.4-14.4-23-18.9-31.1l4.6-3
		c10.8-7.4,15.4-9.6,25.6-9.6v-12.9c-5,0.1-14.4,0.4-20.9,0.4c-8.8,0-24.3-0.5-24.3-0.5c0.2,1.9,0.2,11,0,13h2.7
		c6.9,0,8.5,4.7,2.4,9.3l-19.1,14.4c0-23.8,0-61.7,0.3-74.4c-6.6,0.2-30.1,0.3-37.7,0.3v12.8h2.2c7.1,0,8.1,3.4,8.4,10
		c0.5,6.4,0.3,63.9,0,71c-0.3,7.4-2,10-8.4,10h-1v13.3c4.1-0.1,15.3-0.5,22.5-0.5c8.6,0,22.1,0.5,23.7,0.5c-0.3-6.6,0-13.3,0-13.3
		h-2c-5.1,0-7.3-2.5-7.6-10c-0.2-3.2-0.2-5.9-0.2-11.3l7.1-4.7c3.4,4.7,7.6,11.3,10.3,16.2c3.2,5.9,2.7,9.8-2,9.8h-2
		c0,0,0.3,6.6,0,13.3c0.8,0,16.2-0.5,25.2-0.5C451.8,331.9,463.9,332.3,468,332.4"/>
	<path id="Shape_1_" class="st0" d="M330.7,250.5c-24.8,0-40.9,13.5-40.9,42.9c0,28.4,15.5,41.7,40.9,41.7c25,0,40.7-13.2,40.7-41.7
		C371.5,264,356.1,250.5,330.7,250.5z M330.7,321.6c-7.9,0-12.7-3.9-12.7-28.2c0-24.5,4.6-29.7,12.5-29.7c7.9,0,12.8,5.2,12.8,29.7
		C343.4,317.8,338.4,321.6,330.7,321.6z"/>
	<path id="Shape_2_" class="st0" d="M244.9,250.5c-24.8,0-40.9,13.5-40.9,42.9c0,28.4,15.5,41.7,40.9,41.7c25,0,40.7-13.2,40.7-41.7
		C285.6,264,270.3,250.5,244.9,250.5z M244.9,321.6c-7.9,0-12.7-3.9-12.7-28.2c0-24.5,4.6-29.7,12.5-29.7c7.9,0,12.8,5.2,12.8,29.7
		C257.6,317.8,252.5,321.6,244.9,321.6z"/>
	<path id="Shape_3_" class="st0" d="M171.1,292.6c0,23.2-4.2,27.5-12.3,27.5c-10.3,0-13.3-9.3-13.3-27.5c0-20.3,4.7-27.4,13.7-27.4
		C169.9,265.2,171.1,274.8,171.1,292.6 M199.2,293.3c0-31.3-10.5-42.8-28.9-42.8c-12.8,0-21.1,6.3-24.8,18.1v-9.6
		c0-9.6,0-26.5,0.3-43.9c-6,0.5-26.3,0.5-35.7,0.5v12.8h1.7c4.6,0,6.3,2,6.6,7.9c0.7,16.4,0.5,59.5,0.2,69.5
		c-0.3,8.1-0.7,18.3-1.7,27.2h17.2c0.7-6.4,3.5-13.5,7.6-18.6c4.4,15,14.9,20.4,27.5,20.4C188.3,334.8,199.2,323,199.2,293.3"/>
	<path id="Shape_4_" class="st0" d="M109.9,319.1c-4.9,0-7.1-2.4-7.3-7.9c-0.3-15.5-0.3-74.7,0-96.3c-7.4,0.3-25.4,0.5-36,0.5v12.8
		h1.9c4.7,0,7.1,2.4,7.1,8.4v31.1c-3.4-10.6-10.6-17.2-23.8-17.2c-18.1,0-29.9,11.5-29.9,41.6c0,31.9,10.6,42.8,29.4,42.8
		c12.2,0,20.6-6.6,24.5-19.3v16.7c7.8,0,25.1-0.1,35.5-0.3v-12.9H109.9z M75.6,296.5c0,16.2-5.1,23.7-13.7,23.7
		c-10.6,0-12-10.3-12-28.1c0-22.1,3.5-26.9,12.8-26.9c9,0,12.8,6.4,12.8,22.3L75.6,296.5L75.6,296.5z"/>
	<path id="Shape_5_" class="st0" d="M17.5,296.6c1.9-27.4-8.8-46.1-36.5-46.1c-24.3,0-40.4,15.4-40.4,43.4c0,27.7,15,41.2,40.1,41.2
		c23.2,0,34.5-11.3,36.3-28.4c-3.4,0.2-15.2-0.8-18.4-1c-1.5,9.5-5.4,14.9-15.2,14.9c-10.3,0-14.7-6.6-15.4-24
		C-26.6,296.6,10.9,296.5,17.5,296.6z M-14.3,289.7H-32c0.3-20.1,4.7-25.7,12-25.7c6.9,0,10.3,5.7,10.3,20.3
		C-9.7,289.2-11.2,289.7-14.3,289.7z"/>
	<path id="Shape_6_" class="st0" d="M-58.2,268.6c0-11.5-6.8-18.1-18.6-18.1c-12.2,0-19.8,7.6-22.6,20.8l1.4-18.9
		c-6.6,0.5-26.4,0.5-34,0.5v12.8h2c6.9,0,8.4,2.7,8.6,8.8c0.2,4.9,0.2,28.7,0,35.8c-0.2,6.8-1.9,8.8-8.4,8.8h-2.1v13.3
		c2.7-0.1,16.6-0.5,25.1-0.5c7.8,0,19.6,0.4,23.9,0.5v-13.3h-2.2c-7.1,0-9.1-1.7-9.1-8.8v-25.7c0-12.6,3.4-20.5,9.5-23.6
		c0.3-0.1,1.3-0.6,3.6-0.9c1.5-0.2,2.9,0.2,2.9,0.2c-3.6,2.3-5.9,6.2-5.9,10.8c0,7.1,5.7,12.8,12.8,12.8
		C-61.9,283.9-58.2,276.4-58.2,268.6"/>
</g>
</svg>
