<svg width="41" height="17" viewBox="0 0 41 17" fill="none" xmlns="http://www.w3.org/2000/svg">
    <path d="M0.0610739 9.70611C0.449734 12.7625 2.52259 15.2407 5.58869 16.3971C8.82753 17.5949 12.455 16.9754 15.0029 14.8276L19.1054 11.3995L17.0326 9.66481L13.2324 12.8864C11.4186 14.4146 8.87072 14.8276 6.53875 14.0016C4.42271 13.2168 2.99762 11.4821 2.73851 9.417C2.69533 9.12788 2.69533 8.83876 2.69533 8.54964C2.69533 8.26052 2.73851 7.9714 2.73851 7.68228C2.99762 5.57585 4.42271 3.88244 6.53875 3.0977C8.82753 2.27164 11.3322 2.68467 13.146 4.13026C13.1892 4.17156 13.1892 4.17156 13.2324 4.21287L24.8058 13.8364L25.9718 14.8276C28.5629 16.9754 32.1472 17.5949 35.4292 16.3971C38.4521 15.2407 40.5682 12.7625 40.9136 9.70612C40.9568 9.29309 41 8.92137 41 8.50834C41 8.13662 40.9568 7.72359 40.9136 7.35187C40.525 4.29547 38.4521 1.77601 35.386 0.660842C32.1472 -0.536935 28.5197 0.0826062 25.9286 2.23034L21.8693 5.65846L23.9421 7.35187L27.7424 4.17156C29.5561 2.64337 32.104 2.23034 34.436 3.05639C36.552 3.84114 37.9771 5.53455 38.2362 7.64099C38.2794 7.9301 38.2794 8.21922 38.2794 8.50834C38.2794 8.79746 38.2362 9.12788 38.2362 9.37569C37.9771 11.4408 36.552 13.1755 34.436 13.9603C33.6586 14.2494 32.8381 14.3733 32.0608 14.3733C30.5062 14.3733 28.9515 13.8364 27.7855 12.8451L26.6196 11.8539L15.1325 2.23034L15.0461 2.18904C13.3619 0.743444 11.2027 -6.97616e-07 9.00027 -8.90157e-07C7.87747 -9.88315e-07 6.71149 0.206511 5.63188 0.619538C2.56578 1.73471 0.492921 4.25417 0.10426 7.31056C0.0610741 7.68228 0.0178879 8.09531 0.0178879 8.46704C-0.0252946 8.92136 0.0178878 9.29309 0.0610739 9.70611Z" fill="white"/>
</svg>
