<svg width="912" height="194" viewBox="0 0 912 194" fill="none" xmlns="http://www.w3.org/2000/svg">
<path d="M251.736 109.136H276.272V125.154C270.552 129.858 263.432 132.274 254.787 132.274C246.015 132.274 238.896 129.477 233.684 123.883C228.344 118.289 225.675 110.789 225.675 101.508C225.675 92.2278 228.472 84.8543 233.938 79.1335C239.405 73.5398 246.651 70.7429 255.677 70.7429C264.704 70.7429 272.204 73.794 278.434 80.0234L289.367 69.0902C280.34 59.8098 269.153 55.106 255.804 55.106C241.693 55.106 230.251 59.4284 221.479 68.0732C212.58 76.718 208.131 87.9054 208.131 101.508C208.131 115.62 212.326 126.807 220.844 135.198C229.362 143.715 240.549 147.911 254.66 147.911C269.916 147.911 282.247 142.953 291.782 133.036V94.5161H251.736V109.136Z" fill="white"/>
<path d="M337.954 81.9303C330.708 81.9303 324.86 84.9814 320.283 91.0836L318.885 83.2016H304.265V146.004H321.173V115.365C321.173 104.051 327.148 97.4401 336.428 97.4401C339.988 97.4401 343.421 98.5843 346.599 100.745L353.972 87.6511C349.904 83.8373 344.565 81.9303 337.954 81.9303Z" fill="white"/>
<path d="M376.493 72.5227C378.4 70.7429 379.417 68.4546 379.417 65.6577C379.417 59.9369 374.968 55.7416 368.993 55.7416C363.017 55.7416 358.695 59.9369 358.695 65.6577C357.932 74.3025 370.391 78.4978 376.493 72.5227ZM377.383 146.004V83.2016H360.475V146.004H377.383Z" fill="white"/>
<path d="M442.186 88.9224V83.2016H389.936V98.0758H417.396L387.648 139.901V146.004H442.695V130.748H412.565L442.186 88.9224Z" fill="white"/>
<path d="M505.173 88.9224V83.2016H452.923V98.0758H480.382L450.634 139.901V146.004H505.681V130.748H475.552L505.173 88.9224Z" fill="white"/>
<path d="M534.043 146.004V57.0129H517.135V146.004H534.043Z" fill="white"/>
<path d="M583.337 107.738L576.09 126.934L569.48 107.738L560.199 83.2016H542.019L566.683 145.241L554.224 174.099H572.404L611.687 83.2016H593.38L583.337 107.738Z" fill="white"/>
<path d="M680.617 147.911C691.677 147.911 700.703 145.368 707.441 140.283C714.179 135.198 717.484 128.46 717.484 120.196C717.484 104.814 706.551 96.4231 681.761 92.9906C667.904 91.3379 662.183 87.7783 662.183 81.2947C662.183 74.8111 669.811 70.2344 680.871 70.2344C689.643 70.2344 697.779 72.9041 705.025 78.2435L713.67 65.7848C704.008 58.6656 692.948 55.106 680.362 55.106C669.811 55.106 661.293 57.5214 654.809 62.4795C648.199 67.4375 644.893 73.794 644.893 81.5489C644.893 97.4401 655.445 105.576 679.727 108.5C693.838 110.153 699.94 113.713 699.94 120.451C699.94 127.57 692.44 132.019 680.617 132.019C669.302 132.019 659.767 128.841 651.885 122.358L642.732 135.452C653.157 143.715 665.742 147.911 680.617 147.911Z" fill="white"/>
<path d="M777.597 97.6944L745.306 57.0129H729.542V146.004H747.086V85.8713L775.817 121.849H779.377L808.108 85.8713V146.004H825.652V57.0129H809.761L777.597 97.6944Z" fill="white"/>
<path d="M875.132 147.911C886.193 147.911 895.219 145.368 901.957 140.283C908.694 135.198 912 128.46 912 120.196C912 104.814 901.067 96.4231 876.276 92.9906C862.419 91.3379 856.698 87.7783 856.698 81.2947C856.698 74.8111 864.326 70.2344 875.387 70.2344C884.158 70.2344 892.295 72.9041 899.541 78.2435L908.186 65.7848C898.524 58.6656 887.464 55.106 874.878 55.106C864.326 55.106 855.809 57.5214 849.325 62.4795C842.714 67.4375 839.409 73.794 839.409 81.5489C839.409 97.4401 849.961 105.576 874.242 108.5C888.354 110.153 894.456 113.713 894.456 120.451C894.456 127.57 886.955 132.019 875.132 132.019C863.818 132.019 854.283 128.841 846.401 122.358L837.248 135.452C847.672 143.715 860.258 147.911 875.132 147.911Z" fill="white"/>
<path d="M68.8553 17.0635C77.2241 12.2317 87.5349 12.2317 95.9037 17.0635L150.416 48.5359C158.784 53.3676 163.94 62.297 163.94 71.9605V134.905C163.94 144.569 158.784 153.498 150.416 158.33L95.9037 189.802C87.5349 194.634 77.2241 194.634 68.8553 189.802L14.3435 158.33C5.97473 153.498 0.819336 144.569 0.819336 134.905V71.9605C0.819336 62.297 5.97473 53.3676 14.3435 48.5359L68.8553 17.0635Z" fill="#FB7800"/>
<path d="M32.2168 1.57762C35.9582 -0.525876 40.5259 -0.525874 44.2673 1.57763L57.2967 8.90286C60.6404 10.7827 60.6404 15.5967 57.2967 17.4765L18.8905 39.0689C15.6122 40.912 11.5625 38.543 11.5625 34.7821V20.382C11.5625 15.9393 13.9593 11.8422 17.8319 9.66495L32.2168 1.57762Z" fill="#FB7800"/>
<path d="M132.298 1.57762C128.556 -0.525876 123.988 -0.525874 120.247 1.57763L107.218 8.90286C103.874 10.7827 103.874 15.5967 107.218 17.4765L145.624 39.0689C148.902 40.912 152.952 38.543 152.952 34.7821V20.382C152.952 15.9393 150.555 11.8422 146.682 9.66495L132.298 1.57762Z" fill="#FB7800"/>
<circle cx="49.1836" cy="69.2538" r="5.40968" fill="white"/>
<circle cx="115.82" cy="69.2536" r="5.40968" fill="white"/>
<path d="M38.4107 130.401C35.3976 125.116 35.3976 118.634 38.4107 113.349L53.0016 87.759C56.064 82.388 61.7717 79.072 67.9544 79.072L96.7649 79.072C102.948 79.072 108.655 82.388 111.718 87.759L126.309 113.349C129.322 118.634 129.322 125.116 126.309 130.401L111.718 155.991C110.972 157.299 110.07 158.485 109.042 159.531C108.211 160.376 106.875 160.339 105.978 159.564L86.0396 142.353C85.4985 141.885 85.1874 141.206 85.1874 140.491V126.177C85.1874 125.745 85.3011 125.321 85.5169 124.947L97.4056 104.355C100.056 99.7651 96.7431 94.0276 91.443 94.0276L73.7681 94.0276C68.468 94.0276 65.1554 99.7651 67.8055 104.355L79.6942 124.947C79.91 125.321 80.0236 125.745 80.0236 126.177V140.28C80.0236 140.994 79.7129 141.674 79.1723 142.141L58.8642 159.687C57.9744 160.456 56.6503 160.5 55.8165 159.671C54.7308 158.591 53.7806 157.358 53.0016 155.991L38.4107 130.401Z" fill="white"/>
<path d="M65.0167 160.87C63.6056 162.089 64.0431 164.332 65.8946 164.555C66.5732 164.637 67.2608 164.678 67.9544 164.678H96.7649C97.5423 164.678 98.3123 164.626 99.0704 164.523C100.907 164.276 101.326 162.046 99.9237 160.835L84.0907 147.167C83.1673 146.37 81.7992 146.37 80.8762 147.168L65.0167 160.87Z" fill="white"/>
</svg>
