<svg width="24" height="23" viewBox="0 0 24 23" fill="none" xmlns="http://www.w3.org/2000/svg">
<path d="M7 5C7 5.55228 7.44772 6 8 6C8.55228 6 9 5.55228 9 5L7 5ZM2 22.5L14 22.5L14 20.5L2 20.5L2 22.5ZM16 20.5L16 4.5L14 4.5L14 20.5L16 20.5ZM-1.74846e-07 4.5L-8.74228e-07 20.5L2 20.5L2 4.5L-1.74846e-07 4.5ZM14 2.5L8 2.5L8 4.5L14 4.5L14 2.5ZM8 2.5L2 2.5L2 4.5L8 4.5L8 2.5ZM9 3.5L9 0.5L7 0.5L7 3.5L9 3.5ZM7 3.5L7 5L9 5L9 3.5L7 3.5ZM16 4.5C16 3.39543 15.1046 2.5 14 2.5L14 4.5L14 4.5L16 4.5ZM14 22.5C15.1046 22.5 16 21.6046 16 20.5L14 20.5L14 20.5L14 22.5ZM2 20.5L-8.74228e-07 20.5C-9.2251e-07 21.6046 0.895429 22.5 2 22.5L2 20.5ZM2 4.5L2 2.5C0.89543 2.5 -1.26563e-07 3.39543 -1.74846e-07 4.5L2 4.5Z" fill="white"/>
<path d="M17 3.5L18 3.5C18.5523 3.5 19 3.94772 19 4.5L19 20.5C19 21.0523 18.5523 21.5 18 21.5L17 21.5" stroke="white" stroke-width="2"/>
<path d="M21 3.5L22 3.5C22.5523 3.5 23 3.94772 23 4.5L23 20.5C23 21.0523 22.5523 21.5 22 21.5L21 21.5" stroke="white" stroke-width="2"/>
<path d="M4 18.5C4.53416 16.7156 6.12301 15.4212 8 15.4212C9.87699 15.4212 11.4658 16.7156 12 18.5M10.2222 10.6991C10.2222 11.9136 9.22729 12.8982 7.99999 12.8982C6.77269 12.8982 5.77777 11.9136 5.77777 10.6991C5.77777 9.48457 6.77269 8.5 7.99999 8.5C9.22729 8.5 10.2222 9.48457 10.2222 10.6991Z" stroke="white" stroke-width="2"/>
</svg>

