<svg width="24" height="24" viewBox="0 0 24 24" fill="none" xmlns="http://www.w3.org/2000/svg">
  <path fill-rule="evenodd" clip-rule="evenodd" d="M19.6015 4.39849C17.356 2.15298 13.7153 2.15298 11.4698 4.39849L10.7627 5.1056C10.4698 5.39849 10.4698 5.87337 10.7627 6.16626C11.0556 6.45915 11.5304 6.45915 11.8233 6.16626L12.5304 5.45915C14.1902 3.79942 16.8811 3.79942 18.5408 5.45915C20.2006 7.11888 20.2006 9.80983 18.5408 11.4696L16.8547 13.1557C15.3451 14.6653 12.8977 14.6653 11.3882 13.1557L11.1162 12.8838C10.8233 12.5909 10.3485 12.5909 10.0556 12.8838C9.76267 13.1767 9.76267 13.6515 10.0556 13.9444L10.3275 14.2164C12.4228 16.3117 15.82 16.3117 17.9153 14.2164L19.6015 12.5302C21.847 10.2847 21.847 6.64401 19.6015 4.39849ZM7.14567 10.844C8.65519 9.33452 11.1026 9.33452 12.6121 10.844L12.8841 11.116C13.177 11.4089 13.6519 11.4089 13.9448 11.116C14.2377 10.8231 14.2377 10.3482 13.9448 10.0554L13.6728 9.78339C11.5775 7.68807 8.18032 7.68807 6.085 9.78339L4.39883 11.4696C2.15331 13.7151 2.15331 17.3558 4.39883 19.6013C6.64434 21.8468 10.285 21.8468 12.5306 19.6013L13.2377 18.8942C13.5306 18.6013 13.5306 18.1264 13.2377 17.8335C12.9448 17.5406 12.4699 17.5406 12.177 17.8335L11.4699 18.5406C9.81017 20.2004 7.11922 20.2004 5.45949 18.5406C3.79976 16.8809 3.79976 14.19 5.45949 12.5302L7.14567 10.844Z" fill="#fa7900"/>
</svg>
