<svg width="32" height="32" viewBox="0 0 32 32" fill="none" xmlns="http://www.w3.org/2000/svg">
<mask id="path-1-inside-1_588_9036" fill="white">
<rect x="3" y="3" width="26" height="26" rx="1"/>
</mask>
<rect x="3" y="3" width="26" height="26" rx="1" stroke="#FB7800" stroke-width="4" mask="url(#path-1-inside-1_588_9036)"/>
<path d="M13.6818 10C13.1295 10 12.6818 10.4477 12.6818 11C12.6818 11.5523 13.1295 12 13.6818 12V10ZM23 12C23.5523 12 24 11.5523 24 11C24 10.4477 23.5523 10 23 10V12ZM9 10C8.44772 10 8 10.4477 8 11C8 11.5523 8.44772 12 9 12L9 10ZM9.60513 12C10.1574 12 10.6051 11.5523 10.6051 11C10.6051 10.4477 10.1574 10 9.60513 10L9.60513 12ZM13.6818 15C13.1295 15 12.6818 15.4477 12.6818 16C12.6818 16.5523 13.1295 17 13.6818 17V15ZM23 17C23.5523 17 24 16.5523 24 16C24 15.4477 23.5523 15 23 15V17ZM9 15C8.44772 15 8 15.4477 8 16C8 16.5523 8.44772 17 9 17V15ZM9.60513 17C10.1574 17 10.6051 16.5523 10.6051 16C10.6051 15.4477 10.1574 15 9.60513 15V17ZM13.6818 20C13.1295 20 12.6818 20.4477 12.6818 21C12.6818 21.5523 13.1295 22 13.6818 22V20ZM23 22C23.5523 22 24 21.5523 24 21C24 20.4477 23.5523 20 23 20V22ZM9 20C8.44772 20 8 20.4477 8 21C8 21.5523 8.44772 22 9 22V20ZM9.60513 22C10.1574 22 10.6051 21.5523 10.6051 21C10.6051 20.4477 10.1574 20 9.60513 20V22ZM13.6818 12H23V10H13.6818V12ZM9 12L9.60513 12L9.60513 10L9 10L9 12ZM13.6818 17H23V15H13.6818V17ZM9 17H9.60513V15H9V17ZM13.6818 22H23V20H13.6818V22ZM9 22H9.60513V20H9V22Z" fill="#FB7800"/>
</svg>
