<svg width="28" height="28" viewBox="0 0 28 28" fill="none" xmlns="http://www.w3.org/2000/svg">
  <path d="M18.8125 13.125C18.8125 14.0768 18.5303 15.0073 18.0015 15.7987C17.4726 16.5901 16.721 17.2069 15.8417 17.5712C14.9623 17.9354 13.9947 18.0307 13.0611 17.845C12.1276 17.6593 11.2701 17.201 10.5971 16.528C9.92401 15.8549 9.46567 14.9974 9.27998 14.0639C9.09429 13.1303 9.18959 12.1627 9.55383 11.2833C9.91808 10.404 10.5349 9.65236 11.3263 9.12355C12.1177 8.59475 13.0482 8.3125 14 8.3125C15.2759 8.31395 16.4992 8.82144 17.4014 9.72365C18.3036 10.6259 18.8111 11.8491 18.8125 13.125ZM25.375 14C25.375 16.2498 24.7079 18.449 23.458 20.3196C22.2081 22.1902 20.4315 23.6482 18.353 24.5091C16.2745 25.3701 13.9874 25.5953 11.7809 25.1564C9.57432 24.7175 7.54749 23.6342 5.95667 22.0433C4.36584 20.4525 3.28248 18.4257 2.84357 16.2192C2.40467 14.0126 2.62993 11.7255 3.49088 9.64698C4.35182 7.56847 5.80978 5.79193 7.68039 4.54203C9.551 3.29213 11.7502 2.625 14 2.625C17.0159 2.62818 19.9073 3.82764 22.0398 5.96018C24.1724 8.09271 25.3718 10.9841 25.375 14ZM23.625 14C23.6236 12.7045 23.361 11.4226 22.8528 10.2309C22.3446 9.03922 21.6013 7.96227 20.6673 7.06446C19.7333 6.16665 18.6279 5.4664 17.4171 5.00561C16.2063 4.54482 14.915 4.33295 13.6205 4.38266C8.46891 4.58172 4.36079 8.8725 4.37501 14.0273C4.37994 16.374 5.24544 18.6374 6.80751 20.3886C7.44366 19.4659 8.25174 18.6745 9.1875 18.0578C9.26729 18.0051 9.36214 17.98 9.45754 17.9863C9.55295 17.9927 9.64365 18.0301 9.71579 18.0928C10.9049 19.1213 12.4245 19.6873 13.9967 19.6873C15.5689 19.6873 17.0886 19.1213 18.2777 18.0928C18.3498 18.0301 18.4405 17.9927 18.5359 17.9863C18.6313 17.98 18.7262 18.0051 18.8059 18.0578C19.7429 18.6742 20.5521 19.4656 21.1892 20.3886C22.759 18.631 23.6262 16.3566 23.625 14Z" fill="black"/>
</svg>
